<?xml version="1.0" encoding="UTF-8"?>
<svg width="229px" height="60px" viewBox="0 0 229 60" version="1.1" xmlns="http://www.w3.org/2000/svg" xmlns:xlink="http://www.w3.org/1999/xlink">
    <title>hover section</title>
    <g id="All" stroke="none" stroke-width="1" fill="none" fill-rule="evenodd" fill-opacity="0.529476353">
        <g id="Category" transform="translate(-592.000000, -332.000000)" fill="#272919">
            <g id="hover-section" transform="translate(592.000000, 332.000000)">
                <path d="M105.482364,7.54108921 C104.760783,7.78873623 104.016132,7.97563964 103.272763,8.16020676 C101.78346,8.52116397 100.276215,8.81670499 98.7664056,9.09822825 C95.7455058,9.6542659 92.7079442,10.1297014 89.669101,10.5922874 L71.4091266,13.2264573 C59.2383737,14.9740042 47.0676208,16.7706133 35.0314434,19.1431184 C29.0191222,20.3357958 23.0260261,21.6441197 17.1790406,23.3647992 C14.2581111,24.2268912 11.3743502,25.1999571 8.6226014,26.4136611 C5.93237285,27.6460555 3.13063887,29.0700258 1.52085942,31.3373978 C-0.242720618,33.6713542 1.42857907,36.5590119 3.21522919,38.627799 C5.10953972,40.7643386 7.62417927,42.4079205 10.2541693,43.7956783 C12.8944126,45.1892769 15.710245,46.3142018 18.5824709,47.2825951 C21.4457251,48.280192 24.388443,49.0920537 27.3452592,49.8431718 C39.2135376,52.7576969 51.4304307,54.4012787 63.6614222,55.5904517 C75.9039487,56.7539254 88.2054321,57.3940696 100.512042,57.6755929 C112.819934,57.9536117 125.138079,57.8391334 137.438281,57.3601934 C149.735919,56.8730764 162.023304,56.0471969 174.232507,54.6699524 C180.335827,53.987755 186.422485,53.1712207 192.457877,52.1163846 C198.486859,51.058044 204.481237,49.7812601 210.283364,48.0010051 C213.17866,47.1038687 216.029098,46.0770681 218.720608,44.7921071 C221.394175,43.5083143 223.986996,41.9640249 225.849265,39.864866 C226.756689,38.8135343 227.471861,37.622025 227.748702,36.3335597 C227.878151,35.6910792 227.951206,35.0369172 227.844828,34.3745783 L227.742294,33.3851583 L227.452636,32.4191013 C226.622113,29.8421706 224.695761,27.6086748 222.504102,25.7291274 C218.042604,21.9676962 212.601908,19.2400746 207.065087,16.8827553 C201.491098,14.5499671 195.690252,12.6669153 189.820197,11.0186608 C178.058297,7.75953257 165.977261,5.46295691 153.803945,3.83456094 C129.447059,0.538052034 104.694136,-0.0320033689 80.1244931,1.34874558 C73.9775964,1.66881767 67.8499248,2.2295279 61.7389149,2.90121204 C55.6394401,3.65349826 49.5540636,4.53194429 43.5417424,5.74681647 C31.5619586,8.21627778 19.6693284,11.6681502 9.05836972,17.4434655 C19.6154982,11.5852118 31.49403,8.03404696 43.4725322,5.4676295 C49.4848533,4.20486333 55.5727931,3.27735515 61.6773947,2.47600678 C67.7935312,1.7552605 73.9276112,1.14665627 80.0834796,0.778690176 C104.68901,-0.686165307 129.491917,-0.171012781 153.926985,3.06592067 C166.140033,4.66628112 178.265928,6.93598942 190.099601,10.182268 C196.008107,11.8235136 201.849966,13.7007247 207.486757,16.04169 C213.090225,18.413027 218.610384,21.1453212 223.2385,25.0212307 C225.508341,26.963858 227.569268,29.2966462 228.502325,32.1340736 L228.822743,33.2005912 C228.875292,33.566221 228.90477,33.9365234 228.944502,34.3056576 C229.058571,35.0369172 228.984234,36.966695 228.83556,37.701459 C228.522832,39.1791641 227.715379,40.5225323 226.72721,41.669652 C224.699606,43.9615551 222.001687,45.5549067 219.256347,46.8865935 C216.491781,48.2147758 213.596485,49.2661075 210.662739,50.1842705 C204.787557,52.0042425 198.754729,53.3043894 192.691141,54.3860928 C186.623708,55.4607875 180.51398,56.303021 174.38759,56.9945636 C162.129683,58.3449407 149.81282,59.1404484 137.486984,59.5948573 C125.159868,60.0422573 112.816089,60.1251957 100.485127,59.8133006 C88.1541653,59.4990693 75.8296118,58.8250489 63.5601701,57.6253626 C51.3009819,56.3999771 39.0533287,54.7213508 27.1184033,51.7577636 C24.1436437,50.9926278 21.1829825,50.1679165 18.2928131,49.1527973 C15.3936721,48.1657137 12.545798,47.0209303 9.85685109,45.5911192 C8.38997864,44.8119822 6.95231602,43.9529775 5.62615596,42.9663408 C4.53058102,42.1512548 3.51110475,41.249062 2.61412524,40.2328321 C2.37317099,39.9478044 2.10658331,39.681467 1.88998082,39.3800852 L1.28503185,38.4467363 C0.830038458,37.8486454 0.627534355,37.1314036 0.316088172,36.4667283 C-0.299114166,35.0719616 0.0328387625,32.2240209 0.887713677,30.9846177 C1.74387026,29.7183471 2.98452831,28.7733167 4.25338313,27.9439328 C5.54146303,27.1250622 6.91669659,26.4510418 8.31115522,25.8272517 C11.1128892,24.600698 14.0248469,23.6276322 16.9675648,22.7678765 C22.8581272,21.0565421 28.867885,19.7470501 34.9019946,18.5870808 C46.9830305,16.3033547 59.1730085,14.6001974 71.3617048,12.9461022 L89.6434676,10.4521098 C92.6861558,10.014055 95.7275624,9.56081419 98.7510255,9.02813947 C100.262116,8.75946582 101.771925,8.47443812 103.263791,8.12633051 C104.00716,7.94643598 104.753093,7.76654145 105.475956,7.52473516 C106.173185,7.27007926 106.97423,7.05397219 107.422815,6.4663946 C106.979357,7.05747663 106.178312,7.28059258 105.482364,7.54108921 Z" id="Fill-1"></path>
            </g>
        </g>
    </g>
</svg>