<?xml version="1.0" encoding="UTF-8"?>
<svg width="271px" height="78px" viewBox="0 0 271 78" version="1.1" xmlns="http://www.w3.org/2000/svg" xmlns:xlink="http://www.w3.org/1999/xlink">
    <title>hover menu</title>
    <g id="All" stroke="none" stroke-width="1" fill="none" fill-rule="evenodd">
        <g id="Menu-hover" transform="translate(-945.000000, -610.000000)" fill="#D5B2A6">
            <g id="hover-menu" transform="translate(945.000000, 610.000000)">
                <path d="M124.828475,9.80341597 C123.974551,10.1253571 123.093327,10.3683315 122.213619,10.6082688 C120.451169,11.0775132 118.667485,11.4617165 116.880768,11.8276967 C113.305817,12.5505457 109.711148,13.1686119 106.114962,13.7699736 L84.505997,17.1943945 C70.1030536,19.4662055 55.7001102,21.8017972 41.4564243,24.886054 C34.3414067,26.4365346 27.2491401,28.1373556 20.3297816,30.374239 C16.8731359,31.4949586 13.4604756,32.7599442 10.2040392,34.3377595 C7.02040629,35.9398721 3.70481717,37.7910336 1.79979433,40.7386172 C-0.287237063,43.7727604 1.6905892,47.5267155 3.80492188,50.2161387 C6.04666054,52.9936402 9.02250036,55.1302967 12.1348466,56.9343818 C15.2593267,58.74606 18.5916,60.2084623 21.9906097,61.4673736 C25.3790022,62.7642497 28.8614325,63.8196699 32.3605469,64.7961234 C46.4055402,68.5850059 60.8630861,70.7216624 75.3373162,72.2675872 C89.825197,73.7801031 104.382848,74.6122905 118.946565,74.9782707 C133.5118,75.3396952 148.089168,75.1908734 162.645302,74.5682514 C177.198402,73.9349993 191.739369,72.861356 206.187814,71.0709381 C213.41052,70.1840814 220.613509,69.1225869 227.755828,67.7512999 C234.890563,66.3754572 241.984346,64.7156381 248.850619,62.4013066 C252.27693,61.2350293 255.650155,59.9001885 258.835305,58.2297393 C261.99922,56.5608086 265.067581,54.5532324 267.271401,51.8243258 C268.345252,50.4575946 269.191591,48.9086326 269.519207,47.2336275 C269.672397,46.3984029 269.758851,45.5479924 269.632962,44.6869518 L269.511623,43.4007058 L269.16884,42.1448317 C268.185994,38.7948217 265.906337,35.8912772 263.312715,33.4478656 C258.03295,28.5580051 251.594398,25.012097 245.04209,21.9475819 C238.445797,18.9149573 231.581041,16.4669898 224.634381,14.324259 C210.715277,10.0873923 196.418505,7.10184398 182.012528,4.98492923 C153.188441,0.699467644 123.895681,-0.0416043796 94.819815,1.75336925 C87.5455398,2.16946297 80.2940158,2.89838627 73.0622093,3.77157565 C65.8440535,4.74954774 58.6425818,5.89152758 51.5275642,7.4708614 C37.3506147,10.6811611 23.2768034,15.1685952 10.7197301,22.6765052 C23.2131005,15.0607753 37.2702276,10.444261 51.4456603,7.10791834 C58.560678,5.46632232 65.7651831,4.26056169 72.9894059,3.21880881 C80.2272793,2.28183865 87.4863871,1.49065315 94.7712793,1.01229723 C123.889614,-0.892014899 153.241527,-0.222316615 182.158135,3.98569687 C196.611131,6.06616546 210.960989,9.01678624 224.96503,13.2369484 C231.957192,15.3705677 238.870483,17.8109422 245.541097,20.854197 C252.172275,23.9369351 258.704865,27.4889176 264.181806,32.5275999 C266.867949,35.0530154 269.306863,38.0856401 270.411049,41.7742957 L270.790233,43.1607686 C270.852419,43.6360873 270.887304,44.1174804 270.934323,44.5973549 C271.069313,45.5479924 270.981342,48.0567034 270.8054,49.0118967 C270.435316,50.9329133 269.479772,52.679292 268.310367,54.1705476 C265.910887,57.1500216 262.718154,59.2213787 259.469301,60.9525715 C256.197697,62.6792086 252.771386,64.0459398 249.299573,65.2395517 C242.346847,67.6055153 235.207561,69.2957062 228.031874,70.7019207 C220.851637,72.0990237 213.621347,73.1939272 206.37134,74.0929326 C191.865258,75.8484229 177.289407,76.8825829 162.702938,77.4733145 C148.114952,78.0549345 133.507249,78.1627544 118.914714,77.7572908 C104.322178,77.3487901 89.7372262,76.4725635 75.2174939,74.9129714 C60.7098956,73.3199702 46.2159479,71.1377561 32.0920843,67.2850927 C28.5717356,66.2904161 25.0680709,65.2182914 21.6478269,63.8986365 C18.2169657,62.6154278 14.846774,61.1272094 11.6646578,59.268455 C9.92875202,58.2555768 8.22741328,57.1388707 6.65802736,55.856243 C5.36151727,54.7966312 4.15506283,53.6237806 3.09357179,52.3026817 C2.80842506,51.9321457 2.49294357,51.5859071 2.23661486,51.1941108 L1.52071455,49.9807572 C0.982272586,49.2032391 0.742627993,48.2708247 0.374060675,47.4067468 C-0.353973532,45.5935501 0.0388615923,41.8912272 1.05052579,40.280003 C2.06370673,38.6338512 3.53190905,37.4053117 5.0334796,36.3271126 C6.55780122,35.2625809 8.18526102,34.3863543 9.83547189,33.5754272 C13.151061,31.9809074 16.5970896,30.7159218 20.0795199,29.5982394 C27.0504474,27.3735047 34.1624316,25.6711651 41.3032338,24.163205 C55.6000055,21.1943612 70.0257,18.9802566 84.4498777,16.8299329 L106.084628,13.5877428 C109.685363,13.0182715 113.284583,12.4290585 116.862567,11.7365813 C118.650801,11.3873056 120.437519,11.0167696 122.203002,10.5642297 C123.08271,10.3303668 123.965451,10.0965039 124.820891,9.78215571 C125.645997,9.45110304 126.593958,9.17016385 127.124816,8.40631298 C126.600025,9.17471962 125.652064,9.46477035 124.828475,9.80341597 Z" id="Fill-1"></path>
            </g>
        </g>
    </g>
</svg>