<?xml version="1.0" encoding="UTF-8"?>
<svg width="77px" height="77px" viewBox="0 0 77 77" version="1.1" xmlns="http://www.w3.org/2000/svg" xmlns:xlink="http://www.w3.org/1999/xlink">
    <title>menu</title>
    <g id="All" stroke="none" stroke-width="1" fill="none" fill-rule="evenodd">
        <g id="About" transform="translate(-337.000000, -10.000000)">
            <g id="menu" transform="translate(337.000000, 10.000000)">
                <path d="M57.2367937,47.2594583 L56.8753441,47.526201 C57.1343551,47.8771738 57.2695901,48.153619 57.2810491,48.3555366 C57.2925081,48.5574542 57.2195356,48.7326761 57.0621318,48.8812023 C56.9047279,49.0297285 56.472434,49.3649356 55.76525,49.8868235 L53.0858085,51.864199 C52.4077255,51.8224931 51.8392427,51.7100185 51.3803603,51.5267752 C50.9214778,51.3435319 50.5721957,51.0895198 50.3325138,50.764739 C50.0851003,50.4294814 49.9686404,50.0825414 49.9831342,49.7239188 C49.997628,49.3652963 50.1154763,49.0699752 50.3366791,48.8379558 C50.5578819,48.6059363 50.9513569,48.2811714 51.5171041,47.863661 L51.5171041,47.863661 L53.4755432,46.418838 C54.153174,45.9224942 54.5737009,45.6382948 54.7371239,45.5662397 C54.9141654,45.48818 55.0905773,45.4914981 55.2663596,45.576194 C55.4421418,45.6608899 55.6595385,45.8787242 55.9185495,46.229697 L55.9185495,46.229697 L56.2799991,45.9629543 L53.9836922,42.8513448 L53.6222426,43.1180875 C53.8657903,43.4481067 53.9864654,43.7130457 53.984268,43.9129045 C53.9820707,44.1127633 53.899994,44.2866126 53.738038,44.4344525 C53.576082,44.5822925 53.1519889,44.9094247 52.4657585,45.4158493 L49.9277538,47.2888471 C49.206391,47.2871722 48.6038586,47.1998256 48.1201568,47.0268072 C47.6364549,46.8537888 47.2689642,46.5970316 47.0176849,46.2565356 C46.7702713,45.921278 46.6478238,45.5908937 46.6503423,45.2653826 C46.6528609,44.9398715 46.7457638,44.671051 46.9290511,44.4589211 C47.1123385,44.2467911 47.4213758,43.980294 47.8561629,43.6594295 L47.8561629,43.6594295 L50.173733,41.949539 C50.8424856,41.4594599 51.2588901,41.1762918 51.4229465,41.1000348 C51.6006744,41.017423 51.778739,41.0174986 51.9571405,41.1002616 C52.1355419,41.1830245 52.3503823,41.394654 52.6016617,41.73515 L52.6016617,41.73515 L52.9631113,41.4684073 L50.5914206,38.254649 L50.229971,38.5213917 C50.5083112,38.8985565 50.6594157,39.1855415 50.6832843,39.3823466 C50.707153,39.5791518 50.6485232,39.7518804 50.5073949,39.9005325 C50.3662666,40.0491847 49.9211569,40.399918 49.1720657,40.9527327 L47.2390962,42.3792264 C46.5842962,42.862456 46.1372819,43.248983 45.8980532,43.5388074 C45.6588245,43.8286319 45.551538,44.2314597 45.5761936,44.7472909 C45.6008492,45.2631221 45.7968043,45.7698617 46.1640588,46.2675096 C46.4849232,46.7022968 46.9204721,47.0403122 47.4707054,47.2815557 C48.0209387,47.5227992 48.6839236,47.6646516 49.4596599,47.7071131 C49.0743731,48.19373 48.8830203,48.6909623 48.8856016,49.19881 C48.8881829,49.7066577 49.0846983,50.2251207 49.4751478,50.7541991 C49.8192073,51.2204167 50.2536638,51.573398 50.7785173,51.813143 C51.3033708,52.052888 51.9205543,52.1820159 52.6300677,52.2005268 C52.0800358,52.6064396 51.685588,53.0148583 51.4467245,53.425783 L51.4467245,53.425783 L51.504712,53.504359 C52.0266252,53.8716892 52.598725,54.4002199 53.2210114,55.0899509 L53.2210114,55.0899509 L53.582461,54.8232082 C53.3157183,54.4617586 53.1730318,54.1806983 53.1544015,53.9800274 C53.1357712,53.7793564 53.2002628,53.6063476 53.3478761,53.4610009 C53.4954894,53.3156543 53.9359841,52.9723724 54.6693601,52.4311553 L54.6693601,52.4311553 L56.594472,51.0104603 C57.3697552,50.4383165 57.844951,50.1119051 58.0200597,50.0312263 C58.1951683,49.9505474 58.3719233,49.9515895 58.5503248,50.0343524 C58.7287262,50.1171154 58.9454996,50.3313641 59.2006448,50.6770985 L59.2006448,50.6770985 L59.5620944,50.4103557 L57.2367937,47.2594583 Z M45.0229662,32.4901668 C44.4383791,32.0543435 43.7862838,31.8016574 43.0666801,31.7321087 C42.3470764,31.6625599 41.7053068,31.831721 41.1413714,32.2395918 L41.1413714,32.2395918 L41.5171774,32.519764 C42.5481401,31.9647182 43.5385984,32.0413018 44.4885524,32.7495148 C45.1879691,33.2709463 45.5027346,33.9461521 45.4328488,34.7751322 C45.362963,35.6041123 44.907762,36.5823113 44.0672455,37.7097292 C43.9543984,37.8610955 43.772743,38.0829722 43.5222794,38.3753592 L43.5222794,38.3753592 L39.0517542,35.0424781 C38.6342459,35.6569606 38.4644783,36.391175 38.5424513,37.2451213 C38.6204243,38.0990676 39.0795827,38.8392888 39.9199267,39.4657849 C40.8124659,40.1311937 41.8062632,40.3503464 42.9013188,40.123243 C43.9963744,39.8961397 44.9213563,39.2762938 45.6762646,38.2637055 C46.2093699,37.5486302 46.508728,36.8257625 46.5743387,36.0951024 C46.6399494,35.3644422 46.5334978,34.6821279 46.2549837,34.0481593 C45.9764696,33.4141907 45.5657971,32.8948599 45.0229662,32.4901668 Z M40.1884033,36.3771106 L43.2574855,38.6651832 C42.1953728,39.7086016 41.1893394,39.8762043 40.2393855,39.1679914 C39.8479209,38.8761454 39.6121493,38.5034484 39.5320707,38.0499004 C39.4519921,37.5963524 39.5831691,37.1399192 39.9256018,36.6806008 C39.9956448,36.5866493 40.0832453,36.4854859 40.1884033,36.3771106 L40.1884033,36.3771106 Z M34.9840545,26.7858492 L34.809853,27.199916 C35.2419227,27.3816915 35.5179043,27.5525385 35.6377977,27.712457 C35.7576911,27.8723755 35.7950083,28.0522925 35.7497492,28.2522082 C35.70449,28.4521238 35.5026097,28.9781504 35.144108,29.8302878 L33.8792535,32.8367729 C33.305551,33.2099022 32.7642562,33.443043 32.2553691,33.5361952 C31.746482,33.6293475 31.2730032,33.5837735 30.8349325,33.3994734 C30.4508705,33.2378951 30.174714,33.0087039 30.0064629,32.7118995 C29.8382119,32.4150951 29.7779684,32.1301807 29.8257326,31.8571563 C29.8734968,31.5841319 30.0198249,31.1565727 30.2647168,30.5744788 L30.2647168,30.5744788 L31.3482726,27.9994547 C31.6456817,27.2963781 31.8350374,26.8712988 31.9163397,26.7242167 C32.0050331,26.5637636 32.1418993,26.4482981 32.3269385,26.3778203 C32.5119776,26.3073425 32.8205321,26.3629913 33.2526018,26.5447668 L33.2526018,26.5447668 L33.4236294,26.6167196 L33.5978309,26.2026528 L29.8262224,24.6159042 L29.6520209,25.029971 C30.0780896,25.2092219 30.3510707,25.3788065 30.4709641,25.538725 C30.5908576,25.6986435 30.6266745,25.8779294 30.5784149,26.0765827 C30.5301553,26.275236 30.3267746,26.8006314 29.9682729,27.6527689 L29.9682729,27.6527689 L28.9988036,29.9571407 C28.7109924,30.641251 28.5459869,31.184557 28.5037871,31.5870584 C28.4615873,31.9895599 28.5762621,32.3927261 28.8478116,32.796557 C29.119361,33.200388 29.5491832,33.5260117 30.1372781,33.7734284 C30.6533613,33.9905491 31.2014591,34.0728132 31.7815713,34.0202207 C32.3616835,33.9676281 32.9750724,33.7771784 33.6217382,33.4488716 C33.3696025,34.0985492 33.2342814,34.6384516 33.2157748,35.0685788 L33.2157748,35.0685788 L33.458814,35.1708275 C34.2347637,35.2571304 34.9679398,35.4031324 35.6583422,35.6088333 L35.6583422,35.6088333 L35.8325437,35.1947665 C35.400474,35.012991 35.1244925,34.842144 35.004599,34.6822256 C34.8847056,34.5223071 34.8467573,34.3438902 34.8907541,34.1469751 C34.9347509,33.9500599 35.1372624,33.4225331 35.4982888,32.5643947 L36.5073299,30.1669316 C36.837887,29.3889652 37.0543775,28.9286202 37.1568013,28.7858965 C37.2677604,28.6312792 37.4219256,28.5460467 37.619297,28.530199 C37.8166683,28.5143512 38.1223874,28.5935281 38.5364542,28.7677296 L38.5364542,28.7677296 L38.7106557,28.3536628 L34.9840545,26.7858492 Z M22.7260106,22.4734693 C22.1134222,22.3882354 21.5324995,22.4651625 20.9832425,22.7042507 C20.4339854,22.943339 19.9200669,23.3418127 19.4414867,23.8996719 C19.549712,23.0273572 19.5253248,22.3995164 19.3683252,22.0161496 L19.3683252,22.0161496 L19.2522558,22 C18.7739589,22.130645 18.0438426,22.1342287 17.0619067,22.010751 L17.0619067,22.010751 L17,22.4556836 C17.4255877,22.5148988 17.7129712,22.6107562 17.8621504,22.7432559 C18.0113297,22.8757555 18.0835635,23.0534208 18.0788519,23.2762518 C18.0741404,23.4990827 18.0116722,24.0425342 17.8914475,24.9066063 L17.1687536,30.1007111 L19.9350738,30.4856095 L19.9969806,30.0406769 L19.7938591,30.0124151 C19.3360299,29.948714 19.0442168,29.8374507 18.9184199,29.6786253 C18.792623,29.5197999 18.7330614,29.3455411 18.7397353,29.1558488 C18.7464092,28.9661565 18.8098585,28.4392744 18.9300832,27.5752023 L19.1790559,25.7857994 C19.2732618,25.108728 19.4279265,24.5994671 19.6430499,24.2580168 C19.8581732,23.9165665 20.2140797,23.6144238 20.7107692,23.3515886 C21.2074586,23.0887535 21.7040629,22.9918781 22.2005819,23.0609624 C22.54879,23.1094112 22.8422992,23.2439164 23.0811092,23.4644781 C23.3199193,23.6850398 23.4545191,23.9223243 23.4849085,24.1763316 C23.5152979,24.430339 23.4928102,24.8281712 23.4174455,25.3698283 L23.4174455,25.3698283 L22.6530318,30.863779 L25.3419724,31.237911 L25.4038792,30.7929784 C24.94605,30.7292773 24.6384244,30.6371766 24.4810025,30.5166763 C24.3235805,30.3961761 24.2428797,30.2321222 24.2389,30.0245148 C24.2349203,29.8169074 24.2966315,29.2552745 24.4240338,28.339616 L24.7995117,25.6410029 C24.8973064,24.9381383 24.8946606,24.4020599 24.7915744,24.0327676 C24.6884881,23.6634753 24.450646,23.3296617 24.0780482,23.031327 C23.7054503,22.7329922 23.2547711,22.5470397 22.7260106,22.4734693 Z" fill="#F0ECE8" fill-rule="nonzero" transform="translate(38.281047, 38.544975) rotate(-285.000000) translate(-38.281047, -38.544975) "></path>
                <rect id="Rectangle" x="0" y="0" width="77" height="77"></rect>
            </g>
        </g>
    </g>
</svg>